<?xml version="1.0" encoding="UTF-8"?>
<svg enable-background="new 0 0 196 208" version="1.1" viewBox="0 0 196 208" xml:space="preserve" xmlns="http://www.w3.org/2000/svg">
<style type="text/css">
	.st0{fill:#050505;}
</style>
	<polygon class="st0" points="21 0 0 0 52 104 73 104"/>
	<polygon class="st0" points="36 32 46 54 21 104 0 104"/>
	<polygon class="st0" points="77 104 98 104 46 0 25 0"/>
	<polygon class="st0" points="62 72 52 50 77 0 98 0"/>
	<polygon class="st0" points="175 0 196 0 144 104 123 104"/>
	<polygon class="st0" points="160 32 150 54 175 104 196 104"/>
	<polygon class="st0" points="119 104 98 104 150 0 171 0"/>
	<polygon class="st0" points="134 72 144 50 119 0 98 0"/>
	<polygon class="st0" points="21 208 0 208 52 104 73 104"/>
	<polygon class="st0" points="36 176 46 154 21 104 0 104"/>
	<polygon class="st0" points="77 104 98 104 46 208 25 208"/>
	<polygon class="st0" points="62 136 52 158 77 208 98 208"/>
	<polygon class="st0" points="175 208 196 208 144 104 123 104"/>
	<polygon class="st0" points="160 176 150 154 175 104 196 104"/>
	<polygon class="st0" points="119 104 98 104 150 208 171 208"/>
	<polygon class="st0" points="134 136 144 158 119 208 98 208"/>
</svg>
