<?xml version="1.0" encoding="UTF-8"?>
<svg enable-background="new 0 0 444 118" version="1.1" viewBox="0 0 444 118" xml:space="preserve" xmlns="http://www.w3.org/2000/svg" xmlns:xlink="http://www.w3.org/1999/xlink">
<style type="text/css">
	.st0{fill:#FFFFFF;}
	.st1{clip-path:url(#a);}
	.st2{fill:#34495E;}
</style>
		<path class="st0" d="m158.4 72.3c0-6.6 1.6-13 4.9-19.2s7.9-10.9 13.9-14.2 12.7-4.9 20-4.9c11.4 0 20.7 3.7 28 11.1s10.9 16.7 10.9 28c0 11.4-3.7 20.8-11 28.3s-16.6 11.2-27.7 11.2c-6.9 0-13.5-1.6-19.7-4.7-6.3-3.1-11-7.7-14.3-13.7-3.3-5.9-5-13.2-5-21.9zm20.5 1.1c0 7.5 1.8 13.2 5.3 17.2s7.9 6 13.1 6 9.6-2 13.1-6 5.3-9.7 5.3-17.3c0-7.4-1.8-13-5.3-17s-7.9-6-13.1-6-9.6 2-13.1 6c-3.6 3.9-5.3 9.6-5.3 17.1z"/>
		<path class="st0" d="m302.8 111h-19.9v-38.4c0-8.1-0.4-13.4-1.3-15.8s-2.2-4.2-4.1-5.6c-1.9-1.3-4.2-2-6.9-2-3.4 0-6.5 0.9-9.3 2.8-2.7 1.9-4.6 4.4-5.6 7.5s-1.5 8.9-1.5 17.3v34.2h-19.9v-75.2h18.5v11.1c6.6-8.5 14.8-12.8 24.8-12.8 4.4 0 8.4 0.8 12 2.4s6.4 3.6 8.3 6.1 3.2 5.2 3.9 8.4c0.7 3.1 1.1 7.6 1.1 13.4v46.6z"/>
		<path class="st0" d="m320.4 58.7l-18.1-3.3c2-7.3 5.5-12.7 10.5-16.2s12.3-5.2 22.1-5.2c8.9 0 15.5 1.1 19.8 3.2s7.4 4.8 9.2 8 2.7 9.2 2.7 17.8l-0.2 23.2c0 6.6 0.3 11.5 1 14.6 0.6 3.1 1.8 6.5 3.6 10.1h-19.7c-0.5-1.3-1.2-3.3-1.9-5.9-0.3-1.2-0.6-2-0.7-2.3-3.4 3.3-7 5.8-10.9 7.4-3.9 1.7-8 2.5-12.4 2.5-7.8 0-13.9-2.1-18.3-6.3-4.5-4.2-6.7-9.5-6.7-15.9 0-4.3 1-8 3-11.4 2-3.3 4.9-5.9 8.5-7.7 3.7-1.8 8.9-3.3 15.8-4.6 9.3-1.7 15.8-3.4 19.4-4.9v-2c0-3.8-0.9-6.6-2.8-8.2s-5.5-2.4-10.7-2.4c-3.5 0-6.3 0.7-8.3 2.1-2 1.5-3.6 3.9-4.9 7.4zm26.7 16.2c-2.6 0.9-6.6 1.9-12.1 3-5.5 1.2-9.1 2.3-10.8 3.5-2.6 1.8-3.9 4.2-3.9 7s1 5.2 3.1 7.2 4.7 3 7.9 3c3.6 0 7-1.2 10.3-3.5 2.4-1.8 4-4 4.7-6.6 0.5-1.7 0.8-4.9 0.8-9.7v-3.9z"/>
		<path class="st0" d="m437.9 111h-18.5v-11c-3.1 4.3-6.7 7.5-10.9 9.6s-8.4 3.2-12.7 3.2c-8.6 0-16.1-3.5-22.2-10.5-6.2-7-9.2-16.7-9.2-29.2 0-12.8 3-22.5 9-29.1s13.6-10 22.8-10c8.4 0 15.7 3.5 21.8 10.5v-37.4h19.9v103.9zm-53.2-39.2c0 8 1.1 13.8 3.3 17.4 3.2 5.2 7.7 7.8 13.5 7.8 4.6 0 8.5-1.9 11.7-5.8s4.8-9.7 4.8-17.5c0-8.6-1.6-14.9-4.7-18.7s-7.1-5.7-12-5.7c-4.7 0-8.7 1.9-11.9 5.6-3.1 3.8-4.7 9.4-4.7 16.9z"/>
		<defs>
			<polygon id="b" points="166 7 32 7 84 111 166 111"/>
		</defs>
		<clipPath id="a">
			<use xlink:href="#b"/>
		</clipPath>
		<g class="st1">
			<path class="st0" d="m49.6 35.8h18.4v10.2c6.6-8 14.4-12 23.5-12 4.8 0 9 1 12.5 3s6.5 5 8.7 9c3.3-4 6.9-7 10.7-9s7.9-3 12.3-3c5.5 0 10.2 1.1 14 3.4 3.8 2.2 6.7 5.5 8.6 9.9 1.4 3.2 2.1 8.4 2.1 15.6v48.1h-19.9v-43c0-7.5-0.7-12.3-2.1-14.5-1.8-2.8-4.7-4.3-8.5-4.3-2.8 0-5.4 0.9-7.9 2.6s-4.2 4.2-5.3 7.5-1.6 8.5-1.6 15.6v36.1h-20v-41.2c0-7.3-0.4-12-1.1-14.2-0.7-2.1-1.8-3.7-3.3-4.7s-3.5-1.6-6.1-1.6c-3.1 0-5.8 0.8-8.3 2.5s-4.2 4-5.3 7.2c-1.1 3.1-1.6 8.3-1.6 15.5v36.5h-19.8v-75.2z"/>
		</g>
	<polygon class="st2" points="28 7 7 7 59 111 80 111"/>
	<polygon class="st2" points="43 39 53 61 28 111 7 111"/>
</svg>
